<?xml version="1.0" encoding="utf-8"?>
<!-- Svg Vector Icons : http://www.onlinewebfonts.com/icon -->
<!DOCTYPE svg PUBLIC "-//W3C//DTD SVG 1.1//EN" "http://www.w3.org/Graphics/SVG/1.1/DTD/svg11.dtd">
<svg version="1.1" xmlns="http://www.w3.org/2000/svg" xmlns:xlink="http://www.w3.org/1999/xlink" x="0px" y="0px" viewBox="0 0 256 256" enable-background="new 0 0 256 256" xml:space="preserve">
<metadata> Svg Vector Icons : http://www.onlinewebfonts.com/icon </metadata>
<g><g><path fill="green" d="M133.2,165l-4.6,6.6c0,0-3.3,6,3.3,9.1c17,7.7,21.4,17.6,23.9,20.8c2.6,3.2,6.9,3.2,8.9-0.7c6.8-13.5,14.4-42.8,48.4-68.1c-40.4,14.7-52.9,46.3-52.9,46.3s-7.7-11.8-16.6-15.3C136,160.5,133.2,165,133.2,165L133.2,165z M127.1,191.5c-6.4-2.9-9-7.5-10.1-10.8c-2.3-7,0.4-12.9,1.3-14.6c0.2-0.4,0.4-0.7,0.7-1.1l4.5-6.5c2.5-3.8,7.8-7.7,15.3-7.7c3,0,6.2,0.7,9.4,1.9c3.8,1.5,7.2,3.9,10.2,6.4c1.8-2.4,3.9-5,6.3-7.7c-6.8-3.9-14.7-7.3-22.2-9.8c-0.9-0.3-6.5-2.9-3-13.7h0c9.2-9.6,15.2-25,15.2-40.2c0-23.3-14.4-35.6-32.2-35.6c-17.8,0-32.1,12.2-32.1,35.6c0,15.2,6,30.7,15.2,40.3c3.6,9.6-2.8,13.1-4.2,13.6c-18.6,6.8-40.4,19.3-40.4,31.6v4.6c0,16.8,32,20.6,61.6,20.6c5,0,10.1-0.1,15-0.4C135.1,195.8,131.8,193.6,127.1,191.5L127.1,191.5z"/><path fill="green" d="M128,246c-65.1,0-118-52.9-118-118C10,62.9,62.9,10,128,10c65.1,0,118,52.9,118,118C246,193.1,193.1,246,128,246z M128,16.5c-61.5,0-111.5,50-111.5,111.5s50,111.5,111.5,111.5s111.5-50,111.5-111.5S189.5,16.5,128,16.5z"/></g></g>
</svg>
